# xmcd
#
# Track frame offsets: 
#        150
#        2628
#        22068
#        32044
#        53432
#        67642
#        87057
#        94680
#        107280
#        126930
#        145698
#        159085
#        170943
#        184184
#        205546
#        226117
#        246790
#
# Disc length: 3575 seconds
#
# Revision: 0
# Processed by: cddbd v1.5.2PL0 Copyright (c) Steve Scherf et al.
# Submitted via: ExactAudioCopy v0.99pb5
#
DISCID=c40df511
DTITLE=Huge L - Suomi Syoleinta
DYEAR=2010
DGENRE=Rap
TTITLE0=Oujee
TTITLE1=Amorin nuolen
TTITLE2=Audioteitsen
TTITLE3=S‰ (2010 ep‰virallinen kes‰hitti)
TTITLE4=Hypemies
TTITLE5=K‰si suun eteen
TTITLE6=Mun helvetis
TTITLE7=Pirunn‰lk‰
TTITLE8=Pakoautos
TTITLE9=Mitenseonsitenseon
TTITLE10=Promoottorisahal
TTITLE11=Vihreemp‰‰
TTITLE12=Aitoutes
TTITLE13=Mik‰ vuos (freestyle)
TTITLE14=Magehuiks 2006
TTITLE15=Wiimeinen demo
TTITLE16=1991 ilstrumental
EXTD=
EXTT0=
EXTT1=
EXTT2=
EXTT3=
EXTT4=
EXTT5=
EXTT6=
EXTT7=
EXTT8=
EXTT9=
EXTT10=
EXTT11=
EXTT12=
EXTT13=
EXTT14=
EXTT15=
EXTT16=
PLAYORDER=
